<?xml version="1.0" encoding="iso-8859-1"?>
<!-- Uploaded to: SVG Repo, www.svgrepo.com, Generator: SVG Repo Mixer Tools -->
<svg height="800px" width="800px" version="1.1" id="Layer_1" xmlns="http://www.w3.org/2000/svg" xmlns:xlink="http://www.w3.org/1999/xlink" 
	 viewBox="0 0 512 512" xml:space="preserve">
<circle style="fill:#E16B5A;" cx="256" cy="256" r="256"/>
<path style="fill:#992B1F;" d="M435.928,188c-15.336-72-118.8-112-180.116-52c-61.316-60-164.784-20-180.116,52
	c-20.66,97.044,84.308,208,180.116,248C351.616,396,456.584,285.044,435.928,188z"/>
<path style="fill:#F5F5F5;" d="M227.812,368c-3.848,0-7.164-2.62-7.864-6.42l-22.96-124.372l-21.74,54.728
	c-1.276,3.22-4.464,5.288-7.948,5.044c-3.46-0.232-6.38-2.64-7.24-5.996l-7.332-28.708l-6.104,9.916
	c-1.456,2.364-4.036,3.808-6.812,3.808h-92c-4.416,0-8-3.584-8-8s3.584-8,8-8h87.528L149,237.808c1.68-2.748,4.836-4.18,8.012-3.72
	c3.176,0.476,5.756,2.812,6.552,5.92l5.908,23.144l22.908-57.62c1.32-3.308,4.66-5.356,8.216-5.004
	c3.548,0.352,6.436,3.004,7.084,6.512l18.988,102.912l9.22-66.92c0.492-3.552,3.284-6.344,6.832-6.832
	c3.552-0.48,6.996,1.444,8.428,4.74l12.868,29.564l4.532-9.84c1.304-2.84,4.14-4.656,7.264-4.656h208c4.416,0,8,3.584,8,8
	s-3.584,8-8,8H280.936l-9.86,22.38c-1.304,2.836-4.148,5.62-7.264,5.62c-0.032,0-0.056,0-0.084,0c-3.148,0-5.992-2.884-7.252-5.772
	l-8.628-20.296l-12.112,87.54c-0.536,3.892-3.82,6.54-7.744,6.54C227.932,368,227.872,368,227.812,368z"/>
</svg>